<?xml version="1.0" encoding="UTF-8" standalone="no"?>
<svg
   width="64px"
   height="64px"
   id="svg4594"
   version="1.1"
   sodipodi:docname="Draft_ApplyStyleToAll.svg"
   inkscape:version="1.4.2 (ebf0e940d0, 2025-05-08)"
   xmlns:inkscape="http://www.inkscape.org/namespaces/inkscape"
   xmlns:sodipodi="http://sodipodi.sourceforge.net/DTD/sodipodi-0.dtd"
   xmlns:xlink="http://www.w3.org/1999/xlink"
   xmlns="http://www.w3.org/2000/svg"
   xmlns:svg="http://www.w3.org/2000/svg"
   xmlns:rdf="http://www.w3.org/1999/02/22-rdf-syntax-ns#"
   xmlns:cc="http://creativecommons.org/ns#"
   xmlns:dc="http://purl.org/dc/elements/1.1/">
  <sodipodi:namedview
     id="namedview1"
     pagecolor="#ffffff"
     bordercolor="#666666"
     borderopacity="1.0"
     inkscape:showpageshadow="2"
     inkscape:pageopacity="0.0"
     inkscape:pagecheckerboard="0"
     inkscape:deskcolor="#d1d1d1"
     showguides="true"
     inkscape:zoom="12.671875"
     inkscape:cx="31.960543"
     inkscape:cy="32"
     inkscape:window-width="1850"
     inkscape:window-height="1016"
     inkscape:window-x="0"
     inkscape:window-y="0"
     inkscape:window-maximized="1"
     inkscape:current-layer="svg4594">
    <sodipodi:guide
       position="18.273736,55.968557"
       orientation="0,-1"
       id="guide1"
       inkscape:locked="false" />
    <sodipodi:guide
       position="61.632552,29.82984"
       orientation="1,0"
       id="guide2"
       inkscape:locked="false" />
    <sodipodi:guide
       position="20.204377,16.970715"
       orientation="0,-1"
       id="guide3"
       inkscape:locked="false" />
    <sodipodi:guide
       position="22.378853,29.104192"
       orientation="1,0"
       id="guide4"
       inkscape:locked="false" />
  </sodipodi:namedview>
  <defs
     id="defs4596">
    <linearGradient
       id="linearGradient3792">
      <stop
         style="stop-color:#729fcf;stop-opacity:1;"
         offset="0"
         id="stop3794" />
      <stop
         style="stop-color:#3465a4;stop-opacity:1;"
         offset="1"
         id="stop3796" />
    </linearGradient>
    <linearGradient
       xlink:href="#linearGradient3792"
       id="linearGradient3806"
       x1="4115.4229"
       y1="1473.5258"
       x2="4157.8677"
       y2="1734.2576"
       gradientUnits="userSpaceOnUse"
       gradientTransform="matrix(-0.1649204,0,0,0.1649204,703.71716,-232.01446)" />
    <linearGradient
       xlink:href="#linearGradient3792-5"
       id="linearGradient3806-7"
       x1="4115.4229"
       y1="1473.5258"
       x2="4157.8677"
       y2="1734.2576"
       gradientUnits="userSpaceOnUse"
       gradientTransform="matrix(-0.10495992,0,0,0.10495992,469.04112,-135.0263)" />
    <linearGradient
       id="linearGradient3792-5">
      <stop
         style="stop-color:#ffffff;stop-opacity:1;"
         offset="0"
         id="stop3794-3" />
      <stop
         style="stop-color:#d3d7cf;stop-opacity:1;"
         offset="1"
         id="stop3796-5" />
    </linearGradient>
    <linearGradient
       inkscape:collect="always"
       xlink:href="#linearGradient3792-5"
       id="linearGradient8"
       gradientUnits="userSpaceOnUse"
       gradientTransform="matrix(-0.10495992,0,0,0.10495992,469.04112,-135.0263)"
       x1="4115.4229"
       y1="1473.5258"
       x2="4157.8677"
       y2="1734.2576" />
  </defs>
  <path
     id="text2714"
     d="m 19,40.999998 h 18.000006 l 5.520711,6.720094 c 0.57981,0.858972 0.393384,0.786011 0.479275,1.279914 0,0.999995 -0.647115,1.634939 -1.99999,1.99999 v 2.000006 h 16 V 50.999996 C 56.098085,50.828215 54.53685,50.429487 54.000001,50.000001 53.463152,49.570516 53.000006,49.000006 51.999995,47.999995 L 28.999998,15 c -0.730086,-1.073665 -0.87111,-1.355744 -0.999995,-2.000006 -0.21471,-0.987758 -0.159577,-1.570471 0.999995,-1.99999 V 8.9999982 h -16 v 2.0000058 c 2.000006,0 2.828253,0.09813 3.000001,0.999995 0.128885,0.622789 0.107726,1.039609 -0.150012,1.834096 L 5.8967939,47.720092 C 5.4673577,49.158858 5.4295415,49.463169 5.0000063,50.000001 4.5705701,50.515394 3.859021,50.828215 3.0000001,50.999996 v 2.000006 H 19 v -2.000006 c -1.481661,-0.236199 -1.78523,-0.904819 -2.000006,-1.99999 -0.08586,-0.450958 -0.257639,-1.119562 0,-2.000006 L 19,40.999998 m 0,-6.000002 3.999996,-16 12.000004,16 H 19"
     style="font-style:normal;font-variant:normal;font-weight:bold;font-stretch:normal;font-size:40px;font-family:'Copperplate Gothic Bold';-inkscape-font-specification:'Copperplate Gothic Bold, Bold';fill:url(#linearGradient3806);fill-opacity:1;stroke:#302b00;stroke-width:2.00001;stroke-linecap:round;stroke-linejoin:round;stroke-miterlimit:4;stroke-dasharray:none;stroke-opacity:1" />
  <path
     id="text2714-1"
     d="m 17.723071,38.999992 h 20.128782 l 5.964083,7.216455 c 1.480671,1.914033 1.084236,2.914242 1.253081,3.124466 0,0.931817 -1.519016,1.409822 -2.746634,1.749987 l -0.20455,-0.02273 12.882163,-0.06818 0.613636,0.47728 C 54.795231,51.317198 51.764917,50.582016 51.277775,50.18182 50.790634,49.781608 50.052203,48.79545 49.258408,47.63634 L 29.933513,19.909087 C 29.271028,18.908614 27.324869,16.213963 26.798822,15.204535 26.240368,14.28413 25.290377,11.491137 26.342603,11.090908 l 1.681825,-0.09092 H 13.983171 l 2.159105,-0.113614 c 1.8148,0 1.770915,0.86415 1.904039,1.52271 0.116928,0.580339 -0.106819,1.286907 -0.340693,2.027235 L 8.5376808,45.625537 C 8.1480069,46.966192 8.136413,47.22703 7.9057223,48.090916 7.3115306,49.730241 7.6885881,50.135384 6.9090919,50.295456 l -2.909097,0.70454 H 18.000005 l -2.068184,-1.022721 c -0.821732,-1.4701 -0.851402,-1.070416 -1.046305,-2.09091 -0.07791,-0.420217 0.425314,-2.088668 0.659105,-2.909081 l 2.132998,-5.840919 m -0.73576,-3.036333 5.501745,-20.213667 14.812359,20.190941 -20.125154,0.004"
     style="font-style:normal;font-variant:normal;font-weight:bold;font-stretch:normal;font-size:40px;font-family:'Copperplate Gothic Bold';-inkscape-font-specification:'Copperplate Gothic Bold, Bold';fill:none;stroke:#729fcf;stroke-width:2.00001;stroke-linecap:round;stroke-linejoin:round;stroke-miterlimit:4;stroke-dasharray:none;stroke-opacity:1" />
  <path
     id="text2714-7"
     d="m 19,40.999998 h 18.000006 l 5.520727,6.720094 c 0.579794,0.858972 0.393368,0.786011 0.479275,1.279914 0,0.999995 -0.647131,1.634939 -2.000006,1.99999 v 2.000006 h 16 V 50.999996 C 56.098085,50.828215 54.53685,50.429487 54.000001,50.000001 53.463152,49.570516 53.000006,49.000006 51.999995,47.999995 L 29.000015,15 c -0.730087,-1.073665 -0.871127,-1.355744 -1.000012,-2.000006 -0.21471,-0.987758 -0.159577,-1.570471 1.000012,-1.99999 V 8.9999982 h -16 v 2.0000058 c 1.999989,0 2.828252,0.09813 3.000001,0.999995 0.128868,0.622789 0.107709,1.039609 -0.150029,1.834096 L 5.8968104,47.720092 c -0.4294362,1.438766 -0.4672689,1.743077 -0.8968041,2.279909 -0.4294198,0.515393 -1.1409688,0.828214 -2.0000062,0.999995 v 2.000006 H 19 v -2.000006 c -1.481645,-0.236199 -1.785214,-0.904819 -1.99999,-1.99999 -0.08587,-0.450958 -0.257655,-1.119562 0,-2.000006 L 19,40.999998 m 0,-6.000002 4.000012,-16 11.999988,16 H 19"
     style="font-style:normal;font-variant:normal;font-weight:bold;font-stretch:normal;font-size:40px;font-family:'Copperplate Gothic Bold';-inkscape-font-specification:'Copperplate Gothic Bold, Bold';fill:none;stroke:#302b00;stroke-width:2;stroke-linecap:round;stroke-linejoin:round;stroke-miterlimit:4;stroke-dasharray:none;stroke-opacity:1" />
  <g
     id="g8"
     transform="translate(3.0530209,-9.5240429)">
    <path
       id="path5"
       d="m 33.268105,38.72768 h 11.455703 l 3.513534,4.276855 c 0.369007,0.546673 0.250361,0.500239 0.305024,0.814573 0,0.636424 -0.411842,1.04052 -1.272849,1.272849 v 1.272859 H 57.452361 V 45.091957 C 56.878356,44.982631 55.884743,44.728869 55.543077,44.455532 55.201412,44.182196 54.906653,43.819108 54.270218,43.182673 L 39.632381,22.18056 C 39.167734,21.497249 39.077982,21.317726 38.995956,20.9077 38.859309,20.279064 38.894397,19.908209 39.632381,19.634851 V 18.361992 H 29.449537 v 1.272859 c 1.272859,0 1.799978,0.06245 1.909284,0.636425 0.08203,0.39636 0.06856,0.661636 -0.09547,1.167269 l -6.334489,21.56599 c -0.273305,0.91567 -0.297372,1.109342 -0.57074,1.450997 -0.273305,0.328011 -0.726155,0.527099 -1.27286,0.636425 v 1.272859 h 10.182845 v -1.272859 c -0.942971,-0.150324 -1.13617,-0.575852 -1.27286,-1.272849 -0.05464,-0.287003 -0.163968,-0.712521 0,-1.27286 l 1.27286,-3.818568 m 0,-3.818568 2.545708,-10.182844 7.637136,10.182844 H 33.268105"
       style="font-style:normal;font-variant:normal;font-weight:bold;font-stretch:normal;font-size:40px;font-family:'Copperplate Gothic Bold';-inkscape-font-specification:'Copperplate Gothic Bold, Bold';fill:url(#linearGradient8);fill-opacity:1;stroke:#302b00;stroke-width:1.27286;stroke-linecap:round;stroke-linejoin:round;stroke-miterlimit:4;stroke-dasharray:none;stroke-opacity:1" />
    <g
       id="g7">
      <path
         id="path6"
         d="m 32.455432,37.454821 h 12.810515 l 3.795708,4.592752 c 0.942341,1.218144 0.690038,1.854705 0.797496,1.988497 0,0.593034 -0.966744,0.89725 -1.748034,1.113741 l -0.130181,-0.01447 8.198566,-0.04339 0.390535,0.303754 c -0.520853,-0.101874 -2.449429,-0.569764 -2.75946,-0.82446 -0.31003,-0.254706 -0.779988,-0.882325 -1.285181,-1.620014 L 40.226496,25.304839 C 39.804872,24.66811 38.566282,22.953159 38.231492,22.310731 37.876076,21.72496 37.271475,19.947422 37.941141,19.692705 l 1.07036,-0.05786 h -8.936246 l 1.374115,-0.07231 c 1.154989,0 1.127059,0.549969 1.211783,0.969095 0.07442,0.369344 -0.06798,0.819023 -0.216826,1.290188 l -5.834733,19.849685 c -0.247999,0.85323 -0.255378,1.019234 -0.402196,1.569035 -0.37816,1.043312 -0.13819,1.301157 -0.634283,1.403031 l -1.85143,0.448389 H 32.63168 L 31.31543,44.44107 c -0.522973,-0.935613 -0.541856,-0.681243 -0.665897,-1.330714 -0.04958,-0.267437 0.270681,-1.329286 0.419472,-1.851419 l 1.3575,-3.717323 m -0.468258,-1.932407 3.501463,-12.864539 9.426996,12.850075 -12.808206,0.0025"
         style="font-style:normal;font-variant:normal;font-weight:bold;font-stretch:normal;font-size:40px;font-family:'Copperplate Gothic Bold';-inkscape-font-specification:'Copperplate Gothic Bold, Bold';fill:none;stroke:#ffffff;stroke-width:2;stroke-linecap:round;stroke-linejoin:round;stroke-miterlimit:4;stroke-dasharray:none;stroke-opacity:1" />
      <path
         id="path7"
         d="m 33.268105,38.72768 h 11.455703 l 3.513544,4.276855 c 0.368997,0.546673 0.250351,0.500239 0.305024,0.814573 0,0.636424 -0.411852,1.04052 -1.272859,1.272849 v 1.272859 H 57.452361 V 45.091957 C 56.878356,44.982631 55.884743,44.728869 55.543077,44.455532 55.201412,44.182196 54.906653,43.819108 54.270218,43.182673 L 39.632392,22.18056 c -0.464648,-0.683311 -0.55441,-0.862834 -0.636436,-1.27286 -0.136647,-0.628636 -0.101559,-0.999491 0.636436,-1.272849 V 18.361992 H 29.449548 v 1.272859 c 1.272848,0 1.799978,0.06245 1.909284,0.636425 0.08202,0.39636 0.06855,0.661636 -0.09548,1.167269 l -6.334478,21.56599 c -0.273305,0.91567 -0.297383,1.109342 -0.570751,1.450997 -0.273295,0.328011 -0.726144,0.527099 -1.27286,0.636425 v 1.272859 h 10.182845 v -1.272859 c -0.94296,-0.150324 -1.13616,-0.575852 -1.27285,-1.272849 -0.05465,-0.287003 -0.163978,-0.712521 0,-1.27286 l 1.27285,-3.818568 m 0,-3.818568 2.545718,-10.182844 7.637126,10.182844 H 33.268105"
         style="font-style:normal;font-variant:normal;font-weight:bold;font-stretch:normal;font-size:40px;font-family:'Copperplate Gothic Bold';-inkscape-font-specification:'Copperplate Gothic Bold, Bold';fill:none;stroke:#2e3436;stroke-width:2;stroke-linecap:round;stroke-linejoin:round;stroke-miterlimit:4;stroke-dasharray:none;stroke-opacity:1" />
    </g>
  </g>
  <metadata
     id="metadata5750">
    <rdf:RDF>
      <cc:Work
         rdf:about="">
        <dc:format>image/svg+xml</dc:format>
        <dc:type
           rdf:resource="http://purl.org/dc/dcmitype/StillImage" />
        <cc:license
           rdf:resource="" />
        <dc:date>Mon Oct 10 13:44:52 2011 +0000</dc:date>
        <dc:creator>
          <cc:Agent>
            <dc:title>[wmayer]</dc:title>
          </cc:Agent>
        </dc:creator>
        <dc:rights>
          <cc:Agent>
            <dc:title>FreeCAD LGPL2+</dc:title>
          </cc:Agent>
        </dc:rights>
        <dc:publisher>
          <cc:Agent>
            <dc:title>FreeCAD</dc:title>
          </cc:Agent>
        </dc:publisher>
        <dc:identifier>FreeCAD/src/Mod/Draft/Resources/icons/Draft_Text.svg</dc:identifier>
        <dc:relation>https://www.freecad.org/wiki/index.php?title=Artwork</dc:relation>
        <dc:contributor>
          <cc:Agent>
            <dc:title>[agryson] Alexander Gryson</dc:title>
          </cc:Agent>
        </dc:contributor>
        <dc:description>The capital letter A, slightly italicized</dc:description>
        <dc:subject>
          <rdf:Bag>
            <rdf:li>A</rdf:li>
            <rdf:li>letter</rdf:li>
          </rdf:Bag>
        </dc:subject>
      </cc:Work>
    </rdf:RDF>
  </metadata>
  <g
     id="g5"
     transform="translate(0.23674476,-6.2342774)">
    <path
       id="text2714-9"
       d="m 33.268105,38.72768 h 11.455703 l 3.513534,4.276855 c 0.369007,0.546673 0.250361,0.500239 0.305024,0.814573 0,0.636424 -0.411842,1.04052 -1.272849,1.272849 v 1.272859 H 57.452361 V 45.091957 C 56.878356,44.982631 55.884743,44.728869 55.543077,44.455532 55.201412,44.182196 54.906653,43.819108 54.270218,43.182673 L 39.632381,22.18056 C 39.167734,21.497249 39.077982,21.317726 38.995956,20.9077 38.859309,20.279064 38.894397,19.908209 39.632381,19.634851 V 18.361992 H 29.449537 v 1.272859 c 1.272859,0 1.799978,0.06245 1.909284,0.636425 0.08203,0.39636 0.06856,0.661636 -0.09547,1.167269 l -6.334489,21.56599 c -0.273305,0.91567 -0.297372,1.109342 -0.57074,1.450997 -0.273305,0.328011 -0.726155,0.527099 -1.27286,0.636425 v 1.272859 h 10.182845 v -1.272859 c -0.942971,-0.150324 -1.13617,-0.575852 -1.27286,-1.272849 -0.05464,-0.287003 -0.163968,-0.712521 0,-1.27286 l 1.27286,-3.818568 m 0,-3.818568 2.545708,-10.182844 7.637136,10.182844 H 33.268105"
       style="font-style:normal;font-variant:normal;font-weight:bold;font-stretch:normal;font-size:40px;font-family:'Copperplate Gothic Bold';-inkscape-font-specification:'Copperplate Gothic Bold, Bold';fill:url(#linearGradient3806-7);fill-opacity:1;stroke:#302b00;stroke-width:1.27286;stroke-linecap:round;stroke-linejoin:round;stroke-miterlimit:4;stroke-dasharray:none;stroke-opacity:1" />
    <g
       id="g4">
      <path
         id="text2714-1-1"
         d="m 32.455432,37.454821 h 12.810515 l 3.795708,4.592752 c 0.942341,1.218144 0.690038,1.854705 0.797496,1.988497 0,0.593034 -0.966744,0.89725 -1.748034,1.113741 l -0.130181,-0.01447 8.198566,-0.04339 0.390535,0.303754 c -0.520853,-0.101874 -2.449429,-0.569764 -2.75946,-0.82446 -0.31003,-0.254706 -0.779988,-0.882325 -1.285181,-1.620014 L 40.226496,25.304839 C 39.804872,24.66811 38.566282,22.953159 38.231492,22.310731 37.876076,21.72496 37.271475,19.947422 37.941141,19.692705 l 1.07036,-0.05786 h -8.936246 l 1.374115,-0.07231 c 1.154989,0 1.127059,0.549969 1.211783,0.969095 0.07442,0.369344 -0.06798,0.819023 -0.216826,1.290188 l -5.834733,19.849685 c -0.247999,0.85323 -0.255378,1.019234 -0.402196,1.569035 -0.37816,1.043312 -0.13819,1.301157 -0.634283,1.403031 l -1.85143,0.448389 H 32.63168 L 31.31543,44.44107 c -0.522973,-0.935613 -0.541856,-0.681243 -0.665897,-1.330714 -0.04958,-0.267437 0.270681,-1.329286 0.419472,-1.851419 l 1.3575,-3.717323 m -0.468258,-1.932407 3.501463,-12.864539 9.426996,12.850075 -12.808206,0.0025"
         style="font-style:normal;font-variant:normal;font-weight:bold;font-stretch:normal;font-size:40px;font-family:'Copperplate Gothic Bold';-inkscape-font-specification:'Copperplate Gothic Bold, Bold';fill:none;stroke:#ffffff;stroke-width:2;stroke-linecap:round;stroke-linejoin:round;stroke-miterlimit:4;stroke-dasharray:none;stroke-opacity:1" />
      <path
         id="text2714-7-2"
         d="m 33.268105,38.72768 h 11.455703 l 3.513544,4.276855 c 0.368997,0.546673 0.250351,0.500239 0.305024,0.814573 0,0.636424 -0.411852,1.04052 -1.272859,1.272849 v 1.272859 H 57.452361 V 45.091957 C 56.878356,44.982631 55.884743,44.728869 55.543077,44.455532 55.201412,44.182196 54.906653,43.819108 54.270218,43.182673 L 39.632392,22.18056 c -0.464648,-0.683311 -0.55441,-0.862834 -0.636436,-1.27286 -0.136647,-0.628636 -0.101559,-0.999491 0.636436,-1.272849 V 18.361992 H 29.449548 v 1.272859 c 1.272848,0 1.799978,0.06245 1.909284,0.636425 0.08202,0.39636 0.06855,0.661636 -0.09548,1.167269 l -6.334478,21.56599 c -0.273305,0.91567 -0.297383,1.109342 -0.570751,1.450997 -0.273295,0.328011 -0.726144,0.527099 -1.27286,0.636425 v 1.272859 h 10.182845 v -1.272859 c -0.94296,-0.150324 -1.13616,-0.575852 -1.27285,-1.272849 -0.05465,-0.287003 -0.163978,-0.712521 0,-1.27286 l 1.27285,-3.818568 m 0,-3.818568 2.545718,-10.182844 7.637126,10.182844 H 33.268105"
         style="font-style:normal;font-variant:normal;font-weight:bold;font-stretch:normal;font-size:40px;font-family:'Copperplate Gothic Bold';-inkscape-font-specification:'Copperplate Gothic Bold, Bold';fill:none;stroke:#2e3436;stroke-width:2;stroke-linecap:round;stroke-linejoin:round;stroke-miterlimit:4;stroke-dasharray:none;stroke-opacity:1" />
    </g>
  </g>
</svg>
